<?xml version="1.0" standalone="no"?>
<!DOCTYPE svg PUBLIC "-//W3C//DTD SVG 20010904//EN"
 "http://www.w3.org/TR/2001/REC-SVG-20010904/DTD/svg10.dtd">
<svg version="1.0" xmlns="http://www.w3.org/2000/svg"
 width="1346.000000pt" height="1346.000000pt" viewBox="0 0 1346.000000 1346.000000"
 preserveAspectRatio="xMidYMid meet">
<metadata>
Created by potrace 1.11, written by Peter Selinger 2001-2013
</metadata>
<g transform="translate(0.000000,1346.000000) scale(0.100000,-0.100000)"
fill="#000000" stroke="none">
<path d="M3363 12799 c-6 -6 -20 -11 -32 -12 -11 -1 -21 -6 -21 -11 0 -5 -3
-6 -7 -3 -3 4 -12 -1 -20 -11 -10 -11 -12 -12 -8 -2 4 8 -3 3 -15 -12 -12 -15
-36 -39 -53 -54 -18 -14 -25 -23 -17 -19 10 4 9 2 -2 -8 -10 -8 -15 -17 -11
-20 3 -4 1 -7 -6 -7 -7 0 -9 -4 -6 -10 3 -5 2 -10 -4 -10 -6 0 -8 -7 -5 -15 4
-8 2 -15 -2 -15 -13 0 -15 -26 -20 -247 l-5 -202 -997 -3 -997 -3 -67 -33
c-77 -38 -138 -100 -165 -170 -17 -45 -18 -161 -20 -2788 l-2 -2741 -381
-2192 c-209 -1207 -380 -2206 -380 -2220 0 -92 66 -199 151 -246 l54 -30 277
-3 278 -3 0 -398 c0 -242 4 -420 11 -457 18 -97 60 -173 138 -247 74 -70 138
-101 241 -118 77 -13 10807 -12 10885 1 142 23 275 124 338 257 l32 68 3 448
3 447 264 0 c239 0 269 2 317 20 106 39 182 151 181 265 0 33 -171 1034 -379
2225 l-379 2165 -5 2765 -5 2765 -23 43 c-33 61 -95 120 -161 151 l-56 26
-1223 0 -1223 0 2 211 c1 116 -1 216 -5 223 -4 6 -4 16 -1 21 3 6 1 10 -5 10
-7 0 -10 7 -6 15 3 8 0 15 -6 15 -6 0 -8 3 -5 7 4 3 -1 12 -11 20 -9 8 -11 11
-3 7 8 -4 -10 17 -40 47 -30 30 -57 53 -61 51 -5 -2 -8 2 -8 8 0 6 -4 8 -10 5
-5 -3 -10 -1 -10 5 0 6 -4 8 -10 5 -5 -3 -10 -2 -10 4 0 6 -7 8 -15 5 -8 -4
-15 -2 -15 4 0 7 -56 10 -155 10 -99 0 -155 -3 -155 -10 0 -6 -7 -8 -15 -4 -8
3 -15 1 -15 -5 0 -6 -4 -7 -10 -4 -5 3 -10 1 -10 -6 0 -7 -3 -10 -6 -7 -3 3
-17 -5 -31 -18 -14 -13 -29 -22 -33 -19 -4 2 -16 -5 -26 -18 -19 -22 -19 -22
2 -7 11 9 9 4 -5 -10 -15 -14 -27 -30 -29 -35 -8 -33 -14 -45 -23 -45 -5 0 -8
-3 -8 -7 1 -5 0 -10 -1 -13 -9 -24 -13 -83 -17 -257 l-4 -203 -2589 0 -2590 0
-2 188 c-2 224 -2 224 -12 240 -4 6 -5 16 -1 21 3 5 1 12 -5 16 -6 4 -8 11 -5
16 4 5 1 9 -5 9 -6 0 -8 5 -5 10 3 6 1 10 -5 10 -6 0 -10 3 -8 8 3 6 -99 112
-105 110 -8 -4 -47 15 -47 22 0 5 -7 7 -15 4 -8 -4 -15 -2 -15 4 0 13 -294 14
-307 1z m-1553 -2134 l0 -565 -90 0 -90 0 0 465 c0 256 -4 465 -8 465 -4 0
-48 -12 -96 -26 -49 -14 -89 -24 -91 -22 -4 5 -35 151 -33 153 2 2 62 23 133
48 107 38 143 46 203 46 l72 1 0 -565z m980 483 l0 -73 -145 -155 c-79 -85
-144 -158 -145 -161 0 -4 18 -9 39 -13 105 -16 197 -80 238 -164 24 -50 28
-68 28 -147 0 -75 -5 -99 -26 -145 -35 -76 -77 -121 -147 -158 -173 -92 -413
-49 -559 100 l-43 44 64 63 64 63 41 -41 c60 -60 132 -93 217 -99 58 -4 77 -1
111 17 105 53 131 172 58 259 -36 43 -96 64 -202 70 l-91 5 -15 58 -15 58 139
155 c77 85 139 160 139 165 0 8 -74 11 -225 11 l-225 0 0 80 0 80 350 0 350 0
0 -72z m8131 53 c64 -19 118 -67 147 -129 31 -66 33 -103 18 -472 -10 -262 -2
-316 64 -437 46 -82 48 -93 20 -93 -34 0 -105 80 -130 146 -46 124 -63 319
-41 489 5 33 7 62 5 64 -1 1 -18 -8 -36 -22 -45 -34 -81 -47 -158 -57 -70 -9
-156 2 -203 26 -44 23 -107 84 -126 123 -74 147 10 320 177 368 53 15 205 11
263 -6z m-4108 -118 c125 -219 212 -312 484 -515 137 -102 179 -143 189 -184
6 -23 4 -43 -12 -147 -6 -34 -3 -41 29 -70 19 -17 72 -47 118 -66 154 -62 402
-195 549 -292 391 -260 650 -555 856 -974 174 -355 252 -735 225 -1101 -46
-619 -265 -1119 -663 -1515 -221 -220 -526 -425 -830 -559 -197 -87 -220 -101
-246 -150 -18 -35 -22 -56 -19 -95 3 -28 0 -60 -5 -70 -6 -11 -79 -90 -162
-175 -291 -297 -392 -504 -403 -821 -5 -127 -3 -147 12 -162 9 -9 20 -17 25
-17 9 0 259 201 364 294 96 84 112 134 84 255 -25 108 14 157 212 266 951 525
1534 1064 1881 1741 213 417 291 882 224 1334 -72 489 -353 1133 -707 1625
-151 209 -185 285 -126 285 44 0 124 -64 313 -254 280 -280 449 -481 624 -741
278 -411 450 -829 500 -1210 85 -647 -53 -1102 -552 -1821 -210 -302 -397
-522 -689 -809 -282 -278 -501 -464 -892 -757 -276 -208 -295 -214 -450 -146
-91 40 -188 43 -255 8 -70 -35 -192 -116 -366 -244 -122 -89 -160 -122 -160
-139 0 -17 32 -41 155 -118 85 -54 175 -105 200 -114 25 -9 68 -32 96 -51 118
-80 134 -172 45 -267 -99 -107 -221 -65 -362 124 l-35 46 -74 -27 -75 -28 2
-68 c2 -38 12 -120 24 -183 24 -128 22 -189 -12 -258 -81 -166 -355 -157 -413
14 -22 65 -19 256 8 461 4 30 1 34 -47 62 -29 16 -55 30 -58 30 -16 0 -114
-90 -144 -131 -30 -42 -42 -50 -115 -74 -44 -15 -108 -29 -141 -32 -53 -5 -62
-3 -85 18 -14 13 -35 39 -46 57 l-21 33 47 69 c81 118 127 153 385 295 l146
80 3 62 3 62 -168 113 c-262 175 -421 268 -460 268 -18 0 -74 -9 -124 -20 -49
-11 -127 -21 -173 -23 l-84 -2 -73 50 c-133 90 -501 370 -644 489 -571 477
-968 937 -1290 1496 -241 417 -338 712 -367 1117 -27 385 40 753 200 1086 204
426 503 832 950 1288 181 185 258 249 301 249 56 0 25 -77 -99 -244 -430 -582
-690 -1181 -755 -1734 -83 -707 165 -1379 737 -2001 314 -341 744 -664 1324
-996 172 -99 224 -137 251 -189 19 -37 21 -108 4 -169 -12 -41 -12 -53 3 -91
18 -48 55 -81 317 -288 184 -146 183 -145 203 -129 13 11 16 37 16 140 0 324
-98 524 -416 851 -63 64 -121 133 -129 153 -8 20 -15 61 -15 91 0 50 -3 56
-39 89 -47 43 -67 53 -191 102 -544 213 -994 582 -1276 1046 -223 366 -329
714 -341 1125 -4 110 -1 226 6 295 81 786 549 1482 1229 1827 64 33 184 90
265 126 199 89 262 122 287 148 34 36 86 137 104 200 16 56 19 59 135 148 275
209 401 351 498 559 46 97 66 123 93 118 8 -1 45 -57 83 -124z m4922 94 c75
-21 148 -61 183 -101 75 -86 62 -222 -29 -287 -16 -11 -29 -26 -29 -33 0 -6
18 -30 40 -51 69 -68 77 -159 20 -249 -32 -50 -118 -112 -188 -135 -23 -8 -42
-18 -42 -22 0 -5 31 -17 68 -29 82 -24 137 -58 137 -85 0 -18 -7 -20 -55 -19
-43 1 -86 14 -200 62 -98 41 -185 69 -270 87 -146 32 -173 44 -189 84 -27 63
18 107 98 98 35 -4 69 -19 125 -56 89 -58 154 -76 222 -61 64 15 153 62 193
103 65 69 50 176 -31 218 -45 23 -94 24 -268 4 -187 -22 -270 -6 -270 50 0 33
47 62 117 71 30 3 108 0 180 -9 184 -22 267 -4 308 66 25 41 24 100 0 127 -47
52 -173 90 -300 90 -38 0 -124 -9 -190 -20 -160 -26 -173 -26 -187 5 -33 73
124 118 387 110 66 -2 143 -10 170 -18z"/>
<path d="M10655 11096 c-75 -35 -98 -65 -103 -134 -3 -48 0 -63 20 -92 69
-102 237 -117 371 -33 97 61 79 204 -33 261 -64 32 -185 31 -255 -2z"/>
<path d="M5793 9521 c-321 -161 -435 -236 -602 -396 -262 -251 -427 -545 -501
-892 -28 -128 -38 -411 -20 -561 24 -208 93 -437 187 -627 139 -279 383 -538
688 -730 107 -67 345 -185 432 -214 75 -25 114 -16 137 32 17 37 66 496 93
877 22 310 25 1422 5 1730 -18 279 -51 674 -63 749 -15 99 -49 141 -114 141
-13 0 -122 -49 -242 -109z"/>
<path d="M7339 9556 c-36 -35 -45 -79 -63 -286 -65 -746 -74 -1540 -26 -2260
16 -225 69 -759 81 -804 16 -58 52 -90 97 -83 51 6 408 194 514 270 259 185
476 432 601 683 105 210 156 417 164 664 19 566 -198 1089 -600 1441 -197 173
-570 389 -687 397 -49 4 -58 1 -81 -22z"/>
<path d="M3780 12747 c0 -2 15 -16 33 -33 l32 -29 -29 33 c-28 30 -36 37 -36
29z"/>
<path d="M9730 12747 c0 -2 15 -16 33 -33 l32 -29 -29 33 c-28 30 -36 37 -36
29z"/>
</g>
</svg>
